<svg width="94" height="94" viewBox="0 0 94 94" fill="none" xmlns="http://www.w3.org/2000/svg">
<g clip-path="url(#clip0_2_171)">
<path d="M46.6292 93.5335C72.3616 93.5335 93.2218 72.6733 93.2218 46.9409C93.2218 21.2086 72.3616 0.348358 46.6292 0.348358C20.8968 0.348358 0.0366211 21.2086 0.0366211 46.9409C0.0366211 72.6733 20.8968 93.5335 46.6292 93.5335Z" fill="url(#paint0_linear_2_171)"/>
<path d="M46.6292 93.5335C72.3616 93.5335 93.2218 72.6733 93.2218 46.9409C93.2218 21.2086 72.3616 0.348358 46.6292 0.348358C20.8968 0.348358 0.0366211 21.2086 0.0366211 46.9409C0.0366211 72.6733 20.8968 93.5335 46.6292 93.5335Z" fill="url(#paint1_radial_2_171)"/>
<path d="M25.6734 55.996C21.8903 58.188 18.1194 60.3486 14.3691 62.4589C13.5564 62.9171 13.0204 63.7758 13.0405 64.777C13.0605 65.778 13.6305 66.6666 14.4588 67.1665C24.8424 73.421 35.1597 79.7955 45.2479 85.9148C45.654 86.1603 46.1246 86.303 46.6288 86.3033C47.1329 86.3035 47.6038 86.1603 48.0096 85.9148C58.0978 79.7955 68.4152 73.4209 78.7988 67.1665C79.6271 66.6668 80.1971 65.7777 80.2171 64.777C80.2371 63.7762 79.7011 62.917 78.8885 62.4589C75.1382 60.3486 71.3674 58.1878 67.5842 55.996C53.6142 56.1108 39.6437 56.1108 25.6734 55.996Z" fill="url(#paint2_linear_2_171)"/>
<path d="M25.6734 55.996C21.8903 58.188 18.1194 60.3486 14.3691 62.4589C13.5564 62.9171 13.0204 63.7758 13.0405 64.777C13.0605 65.778 13.6305 66.6666 14.4588 67.1665C24.8424 73.421 35.1597 79.7955 45.2479 85.9148C45.654 86.1603 46.1246 86.303 46.6288 86.3033C47.1329 86.3035 47.6038 86.1603 48.0096 85.9148C58.0978 79.7955 68.4152 73.4209 78.7988 67.1665C79.6271 66.6668 80.1971 65.7777 80.2171 64.777C80.2371 63.7762 79.7011 62.917 78.8885 62.4589C75.1382 60.3486 71.3674 58.1878 67.5842 55.996C53.6142 56.1108 39.6437 56.1108 25.6734 55.996Z" fill="url(#paint3_radial_2_171)"/>
<path d="M79.0143 44.5872C75.2073 42.3804 71.3948 40.1405 67.5845 37.886C53.6142 37.7712 39.6439 37.7712 25.6736 37.886C21.8634 40.1405 18.0506 42.3804 14.2439 44.5872C13.4189 45.0664 12.863 45.94 12.863 46.941C12.863 47.9426 13.4189 48.8156 14.2437 49.2948C18.0506 51.5016 21.8632 53.7415 25.6734 55.996C39.6438 56.1108 53.6141 56.1108 67.5844 55.996C71.3946 53.7415 75.2073 51.5016 79.0141 49.2948C79.8389 48.8156 80.3948 47.9422 80.3948 46.941C80.395 45.94 79.8391 45.0662 79.0143 44.5872Z" fill="url(#paint4_linear_2_171)"/>
<path d="M41.1295 46.941C35.9683 49.9861 30.8094 53.02 25.6733 55.996C32.2109 59.864 38.7413 63.7747 45.2237 67.6335C45.6366 67.8782 46.1156 68.0214 46.6289 68.0212C47.1421 68.0212 47.6212 67.8785 48.0341 67.6335C54.5165 63.7747 61.0469 59.864 67.5844 55.996C62.4483 53.0199 57.2895 49.9861 52.1283 46.941C48.462 46.941 44.7958 46.941 41.1295 46.941Z" fill="url(#paint5_linear_2_171)"/>
<path d="M79.0143 44.5872C75.2074 42.3804 71.3948 40.1405 67.5846 37.886C53.6143 37.7712 39.6439 37.7712 25.6736 37.886C21.8634 40.1405 18.0506 42.3804 14.2439 44.5872C13.4189 45.0664 12.863 45.94 12.863 46.941C12.863 47.9426 13.4189 48.8156 14.2437 49.2948C24.5822 55.2876 34.9632 61.5257 45.2238 67.6336C45.6367 67.8782 46.1158 68.0214 46.629 68.0212C47.1423 68.0212 47.6213 67.8785 48.0342 67.6336C58.2948 61.5256 68.6758 55.2876 79.0143 49.2948C79.8391 48.8156 80.395 47.9422 80.395 46.941C80.395 45.94 79.8391 45.0662 79.0143 44.5872Z" fill="url(#paint6_radial_2_171)"/>
<path d="M13.0409 29.1048C13.0209 30.1058 13.5569 30.9645 14.3695 31.4229C18.1198 33.5332 21.8906 35.694 25.6738 37.886C39.6442 37.7712 53.6145 37.7712 67.5848 37.886C71.3679 35.694 75.1388 33.5332 78.8891 31.4229C79.7018 30.9648 80.2377 30.1056 80.2177 29.1048C57.8253 28.5102 35.4332 28.5102 13.0409 29.1048Z" fill="url(#paint7_linear_2_171)"/>
<path d="M80.2176 29.1047C80.1975 28.1037 79.6275 27.2154 78.7992 26.7152C68.4156 20.4609 58.0983 14.0863 48.0101 7.96701C47.604 7.72185 47.1336 7.57843 46.6292 7.57843C46.1251 7.57861 45.6542 7.72167 45.2484 7.96701C35.1602 14.0863 24.8428 20.4609 14.4592 26.7152C13.631 27.215 13.0609 28.1039 13.0409 29.1047C13.0313 29.5854 13.5747 29.9898 14.3904 30.1991C23.6918 32.5783 33.0444 35.1581 42.4201 37.8034C45.226 37.7988 48.0321 37.7988 50.838 37.8034C60.2137 35.1581 69.5664 32.5783 78.8676 30.1991C79.6837 29.99 80.2272 29.5852 80.2176 29.1047Z" fill="url(#paint8_linear_2_171)"/>
<path d="M62.1355 34.6527C51.7978 34.5675 41.4599 34.5675 31.1221 34.6527C29.307 35.7324 27.4905 36.8109 25.6733 37.886C30.8094 40.8619 35.9683 43.8959 41.1295 46.941H52.1281C57.2893 43.8959 62.4482 40.8619 67.5843 37.886C65.7673 36.8109 63.9508 35.7325 62.1355 34.6527Z" fill="url(#paint9_linear_2_171)"/>
<path d="M46.629 25.8606C46.1157 25.8604 45.6367 26.0038 45.2239 26.2483C40.5434 29.0345 35.8377 31.8477 31.1224 34.6526C34.2559 35.514 37.3934 36.3887 40.5337 37.272C44.5168 38.3925 48.7413 38.3925 52.7244 37.272C55.8647 36.3889 59.002 35.514 62.1357 34.6526C57.4204 31.8477 52.7148 29.0343 48.0342 26.2483C47.6212 26.0035 47.1422 25.8604 46.629 25.8606Z" fill="url(#paint10_linear_2_171)"/>
<path d="M46.6293 44.1427C46.1126 44.1427 45.6301 44.2852 45.2148 44.5296C43.8532 45.3335 42.4915 46.1376 41.1299 46.941C42.4915 47.7442 43.8532 48.5484 45.2146 49.3523C45.6301 49.5964 46.1124 49.7393 46.6291 49.7393C47.1458 49.7393 47.6283 49.5968 48.0437 49.3523C49.4052 48.5484 50.767 47.7443 52.1283 46.941C50.7668 46.1378 49.405 45.3335 48.0435 44.5296C47.6285 44.285 47.146 44.1427 46.6293 44.1427Z" fill="url(#paint11_linear_2_171)"/>
</g>
<defs>
<linearGradient id="paint0_linear_2_171" x1="13.6833" y1="79.8868" x2="79.5751" y2="13.9951" gradientUnits="userSpaceOnUse">
<stop stop-color="#364AFF"/>
<stop offset="1" stop-color="#FC54FF"/>
</linearGradient>
<radialGradient id="paint1_radial_2_171" cx="0" cy="0" r="1" gradientUnits="userSpaceOnUse" gradientTransform="translate(46.6292 46.9409) scale(47.0658)">
<stop offset="0.095" stop-color="#8D00DB" stop-opacity="0.66"/>
<stop offset="0.2822" stop-color="#9F0DE1" stop-opacity="0.523"/>
<stop offset="0.6541" stop-color="#CC30F0" stop-opacity="0.252"/>
<stop offset="1" stop-color="#FC54FF" stop-opacity="0"/>
</radialGradient>
<linearGradient id="paint2_linear_2_171" x1="16.7988" y1="94.5912" x2="68.878" y2="42.512" gradientUnits="userSpaceOnUse">
<stop stop-color="#B31DE7"/>
<stop offset="1" stop-color="#FDA0FF"/>
</linearGradient>
<radialGradient id="paint3_radial_2_171" cx="0" cy="0" r="1" gradientUnits="userSpaceOnUse" gradientTransform="translate(46.8172 53.3162) scale(53.173 53.173)">
<stop stop-color="#B31DE7"/>
<stop offset="0.147" stop-color="#C238EC" stop-opacity="0.853"/>
<stop offset="0.4177" stop-color="#DC65F4" stop-opacity="0.582"/>
<stop offset="0.6598" stop-color="#EE85FA" stop-opacity="0.34"/>
<stop offset="0.8622" stop-color="#F999FE" stop-opacity="0.138"/>
<stop offset="1" stop-color="#FDA0FF" stop-opacity="0"/>
</radialGradient>
<linearGradient id="paint4_linear_2_171" x1="10.4324" y1="83.1376" x2="79.6879" y2="13.8822" gradientUnits="userSpaceOnUse">
<stop stop-color="#FC54FF"/>
<stop offset="1" stop-color="white"/>
</linearGradient>
<linearGradient id="paint5_linear_2_171" x1="33.8893" y1="68.7357" x2="82.9684" y2="19.6565" gradientUnits="userSpaceOnUse">
<stop stop-color="#FC54FF"/>
<stop offset="0.4062" stop-color="#FD9BFF"/>
<stop offset="1" stop-color="white"/>
</linearGradient>
<radialGradient id="paint6_radial_2_171" cx="0" cy="0" r="1" gradientUnits="userSpaceOnUse" gradientTransform="translate(46.0615 23.0203) scale(57.7546 57.7546)">
<stop stop-color="#B31DE7"/>
<stop offset="0.0576" stop-color="#BA2AE9" stop-opacity="0.942"/>
<stop offset="0.2672" stop-color="#D254F1" stop-opacity="0.733"/>
<stop offset="0.4713" stop-color="#E575F7" stop-opacity="0.529"/>
<stop offset="0.6657" stop-color="#F28DFB" stop-opacity="0.334"/>
<stop offset="0.8464" stop-color="#FA9BFE" stop-opacity="0.154"/>
<stop offset="1" stop-color="#FDA0FF" stop-opacity="0"/>
</radialGradient>
<linearGradient id="paint7_linear_2_171" x1="17.6872" y1="58.611" x2="60.5122" y2="15.786" gradientUnits="userSpaceOnUse">
<stop stop-color="#FDA0FF"/>
<stop offset="0.3201" stop-color="#FEBBFF"/>
<stop offset="1" stop-color="white"/>
</linearGradient>
<linearGradient id="paint8_linear_2_171" x1="12.4705" y1="62.864" x2="58.4561" y2="16.8784" gradientUnits="userSpaceOnUse">
<stop stop-color="#FDA0FF"/>
<stop offset="0.9781" stop-color="white"/>
</linearGradient>
<linearGradient id="paint9_linear_2_171" x1="34.153" y1="50.3619" x2="70.4545" y2="14.0604" gradientUnits="userSpaceOnUse">
<stop stop-color="#FDA0FF"/>
<stop offset="1" stop-color="white"/>
</linearGradient>
<linearGradient id="paint10_linear_2_171" x1="25.6135" y1="55.6682" x2="65.2003" y2="16.0816" gradientUnits="userSpaceOnUse">
<stop stop-color="#FDA0FF"/>
<stop offset="1" stop-color="white"/>
</linearGradient>
<linearGradient id="paint11_linear_2_171" x1="32.5933" y1="60.977" x2="64.064" y2="29.5063" gradientUnits="userSpaceOnUse">
<stop stop-color="#FC54FF"/>
<stop offset="1" stop-color="white"/>
</linearGradient>
<clipPath id="clip0_2_171">
<rect width="93.1851" height="93.1851" fill="white" transform="translate(0.0366211 0.348389)"/>
</clipPath>
</defs>
</svg>
