<svg width="104" height="104" viewBox="0 0 104 104" fill="none" xmlns="http://www.w3.org/2000/svg">
<path d="M43.3805 93.0556C50.0719 96.1745 57.9541 81.9411 67.7076 78.5954C77.4045 75.3065 88.6324 83.0186 94.3598 78.0284C99.6902 73.3217 102.696 62.3206 94.3598 53.5878C90.5037 49.5616 69.6924 40.205 56.82 49.0513C43.9475 57.8975 25.2911 84.6063 43.3805 93.0556Z" fill="#F3EFEB"/>
<path d="M81.7139 48.8811C81.7139 49.7317 81.9974 50.5823 82.4511 51.2061L60.5623 66.687C59.8251 65.6662 58.6343 64.9858 57.2166 64.9858C56.7062 64.9858 56.1959 65.0992 55.7989 65.2693L51.0923 52.7938C52.6234 52.2268 53.7575 50.6957 53.7575 48.9945C53.7575 47.5201 53.0203 46.2726 51.8295 45.5354L61.4696 30.2813C62.0934 30.6782 62.8306 30.9051 63.6245 30.9051C64.7586 30.9051 65.7793 30.4514 66.5165 29.7142L82.9047 45.989C82.1675 46.7262 81.7139 47.7469 81.7139 48.8811Z" stroke="#FCB116" stroke-width="1.7" stroke-miterlimit="10"/>
<path d="M45.7054 49.8451L29.4873 56.9334" stroke="#FCB116" stroke-width="1.7" stroke-miterlimit="10"/>
<path d="M23.1928 55.4591L16.9551 48.0305" stroke="#FCB116" stroke-width="1.7" stroke-miterlimit="10"/>
<path d="M67.7078 26.8223C67.7078 27.9564 67.2541 28.9771 66.5169 29.7143C65.7797 30.4515 64.759 30.9051 63.6249 30.9051C62.831 30.9051 62.0938 30.6783 61.47 30.2814C60.3359 29.5442 59.542 28.2966 59.542 26.8223C59.542 24.554 61.3566 22.7394 63.6249 22.7394C65.8931 22.7394 67.7078 24.6107 67.7078 26.8223Z" stroke="#FCB116" stroke-width="1.7" stroke-miterlimit="10"/>
<path d="M89.8796 48.8811C89.8796 51.1494 88.065 52.964 85.7967 52.964C84.4358 52.964 83.1882 52.2835 82.451 51.2061C81.9974 50.5256 81.7139 49.7317 81.7139 48.8811C81.7139 47.747 82.1675 46.7262 82.9047 45.9891C83.6419 45.2519 84.6626 44.7982 85.7967 44.7982C88.0083 44.7982 89.8796 46.6128 89.8796 48.8811Z" stroke="#FCB116" stroke-width="1.7" stroke-miterlimit="10"/>
<path d="M61.2996 69.0687C61.2996 71.337 59.4849 73.1516 57.2167 73.1516C54.9484 73.1516 53.1338 71.337 53.1338 69.0687C53.1338 67.3108 54.2112 65.8364 55.799 65.2694C56.2527 65.0993 56.7063 64.9858 57.2167 64.9858C58.5776 64.9858 59.8252 65.6663 60.5624 66.687C61.016 67.3675 61.2996 68.2181 61.2996 69.0687Z" stroke="#FCB116" stroke-width="1.7" stroke-miterlimit="10"/>
<path d="M53.7576 48.9946C53.7576 50.7525 52.6801 52.2269 51.0923 52.794C50.6387 52.9641 50.185 53.0775 49.6747 53.0775C47.6899 53.0775 46.1022 51.7165 45.7052 49.8452C45.6485 49.5617 45.5918 49.2782 45.5918 48.9946C45.5918 46.7264 47.4064 44.9117 49.6747 44.9117C50.4686 44.9117 51.2058 45.1386 51.8295 45.5355C52.9637 46.2727 53.7576 47.5203 53.7576 48.9946Z" stroke="#FCB116" stroke-width="1.7" stroke-miterlimit="10"/>
<path d="M29.8274 58.578C29.8274 60.8463 28.0128 62.6609 25.7445 62.6609C23.4762 62.6609 21.6616 60.8463 21.6616 58.578C21.6616 57.3305 22.2287 56.1963 23.136 55.4591C23.8165 54.8921 24.7238 54.4951 25.7445 54.4951C27.389 54.4951 28.8634 55.5158 29.4871 56.9335C29.714 57.4439 29.8274 58.0109 29.8274 58.578Z" stroke="#FCB116" stroke-width="1.7" stroke-miterlimit="10"/>
<path d="M18.4294 44.9116C18.4294 46.1592 17.8624 47.2933 16.9551 48.0305C16.2746 48.5975 15.3106 48.9945 14.3465 48.9945C12.0783 48.9945 10.2637 47.1799 10.2637 44.9116C10.2637 42.6433 12.0783 40.8287 14.3465 40.8287C16.6148 40.8287 18.4294 42.6433 18.4294 44.9116Z" stroke="#FCB116" stroke-width="1.7" stroke-miterlimit="10"/>
</svg>
